M48
;DRILL file {Pcbnew (2013-07-07 BZR 4022)-stable} date 11/9/2013 6:13:08 PM
;FORMAT={2:4/ absolute / inch / keep zeros}
FMAT,2
INCH,TZ
T1C0.015
T2C0.020
T3C0.035
T4C0.098
T5C0.142
%
G90
G05
M72
T1
X001600Y015800
X002000Y012500
X002550Y016000
X003250Y014000
X003700Y014000
X003800Y015100
X004200Y015250
X004200Y014000
X004600Y015500
X004650Y014000
X004950Y015750
X005350Y013700
X005700Y013950
X005700Y013450
X005700Y012950
X006150Y014000
X006550Y017000
X006550Y016500
X006550Y016000
X006600Y014000
X006900Y016250
X007250Y016550
X007450Y018000
X007500Y016900
X007550Y014000
X007550Y013550
X007800Y017250
X008200Y017700
X008700Y012400
X008700Y010650
X009450Y012125
X009650Y017300
X009750Y016000
X009750Y015500
X009750Y015000
X009750Y014500
X009750Y014000
X010050Y024100
X010200Y008000
X010250Y016000
X010250Y015500
X010250Y015000
X010250Y014500
X010250Y014000
X010550Y022650
X010850Y017000
X011000Y017400
X011150Y016650
X011200Y008100
X011400Y010000
X011400Y009400
X011450Y008900
X011500Y011150
X011650Y008100
X011750Y011500
X012150Y008750
X012350Y007750
X012450Y015450
X012550Y015000
X012700Y017150
X012775Y016700
X012950Y014150
X013200Y015800
X013200Y002300
X013250Y016700
X013500Y011950
X013850Y011700
X013950Y017425
X014400Y013300
X014500Y002050
X014550Y015400
X014550Y005900
X014600Y014450
X014750Y011000
X014750Y010500
X014750Y010000
X014750Y009500
X014750Y009000
X015100Y014050
X015250Y011000
X015250Y010500
X015250Y010000
X015250Y009500
X015250Y009000
X015425Y013750
X015500Y015000
X015500Y002050
X015700Y016650
X016000Y005650
X016350Y016700
X016400Y021850
X016450Y006100
X016550Y018300
X016850Y003300
X016950Y014200
X017200Y017675
X017450Y015050
X017450Y014600
X017450Y014150
X017450Y013700
X017500Y011500
X017850Y008200
X017950Y010800
X018000Y011500
X018150Y010100
X018250Y008400
X018350Y009350
X018400Y003550
X018400Y003050
X018400Y002550
X018450Y008850
X018450Y007700
X018500Y016900
X018500Y013300
X018750Y009850
X018850Y016650
X018900Y013500
X018950Y011250
X018950Y010800
X019100Y002050
X019626Y010850
X019750Y016000
X019750Y015500
X019750Y015000
X019750Y014500
X019750Y014000
X019800Y001100
X020050Y021800
X020250Y016000
X020250Y015500
X020250Y015000
X020250Y014500
X020250Y014000
X020450Y017650
X020775Y018000
X021100Y017250
X021200Y010550
X021300Y011250
X021750Y011250
X022050Y017200
X022500Y017200
X022500Y016000
X022550Y013300
X022700Y014250
X022800Y016800
X023200Y014250
X023600Y016000
X023700Y014250
X024000Y012400
X024000Y011350
X024000Y010900
X024050Y016000
X024450Y012400
X024500Y016000
X026700Y014900
X027200Y014050
X027900Y015000
X027950Y017500
X028100Y014050
X030500Y015200
X030500Y014800
X034200Y011300
X034950Y005600
X035550Y007350
X035600Y009900
X035600Y009400
X036000Y026550
X036000Y026050
X036500Y026900
X036550Y010050
X036600Y007350
X037000Y026150
X037800Y020250
X037850Y009500
X037900Y010450
X038000Y010000
X038350Y009300
X038600Y015250
X038650Y007400
T2
X001050Y011450
X001200Y018900
X004500Y024750
X005200Y004350
X011300Y001300
X011450Y028900
X018700Y028850
X018750Y001200
X020550Y005500
X025200Y004800
X025400Y025100
X028650Y018650
X028650Y011150
X032900Y002800
X039100Y001550
T3
X009500Y011000
X009500Y010000
X009500Y009000
X010500Y011000
X010500Y010000
X010500Y009000
T4
X031750Y029250
X031750Y000750
X040250Y029250
X040250Y000750
T5
X006250Y023750
X006250Y006250
X023750Y023750
X023750Y006250
T0
M30
